<svg width="24" height="25" viewBox="0 0 24 25" fill="none" xmlns="http://www.w3.org/2000/svg">
<path d="M21.9797 2.89844H2.00973C1.07973 2.89844 0.469727 3.50844 0.469727 4.44844V17.1984C0.469727 18.1384 1.06973 18.7384 2.00973 18.7484H4.77973C4.71973 18.8484 4.67973 18.9084 4.62973 18.9684C4.25973 19.4684 3.86973 19.9684 3.50973 20.4684C3.16973 20.9384 3.43973 21.5484 3.99973 21.6184C4.29973 21.6584 4.51973 21.5184 4.69973 21.2784C5.28973 20.4884 5.87973 19.7084 6.46973 18.9184C6.55973 18.7884 6.65973 18.7384 6.81973 18.7384C10.2697 18.7484 13.7197 18.7484 17.1797 18.7384C17.3297 18.7384 17.4297 18.7884 17.5297 18.9184C18.1097 19.7084 18.6997 20.4884 19.2997 21.2784C19.5897 21.6684 20.0197 21.7384 20.3597 21.4784C20.6897 21.2184 20.7197 20.7884 20.4497 20.4084C20.1597 20.0184 19.8697 19.6384 19.5797 19.2484C19.4597 19.0984 19.3497 18.9384 19.1997 18.7484H21.9897C22.9297 18.7384 23.5197 18.1384 23.5197 17.1984V4.44844C23.5197 3.50844 22.9097 2.89844 21.9797 2.89844ZM22.0697 17.2984H1.92973V4.35844H22.0697V17.2984Z" fill="#018058"/>
</svg>
