<svg width="24" height="25" viewBox="0 0 24 25" fill="none" xmlns="http://www.w3.org/2000/svg">
<path d="M21.7211 6.11809C21.4855 4.98871 20.6973 4.34277 19.5517 4.34277H4.44734C3.19609 4.34277 2.29016 5.24871 2.29016 6.49996C2.28609 8.00309 2.28609 9.50215 2.29016 11.0053C2.29016 11.184 2.30641 11.3709 2.34703 11.5496C2.58266 12.5328 3.41141 13.1625 4.46359 13.1625H16.8908C17.8089 13.1625 18.727 13.1665 19.6452 13.1584C20.3723 13.1543 20.9695 12.8618 21.3677 12.2525C21.5464 11.9803 21.6236 11.6431 21.7495 11.3384V6.16684C21.7414 6.15059 21.7252 6.1384 21.7211 6.11809ZM20.5348 10.9646C20.5308 11.5943 20.1814 11.9437 19.5598 11.9437H4.48797C3.85016 11.9437 3.50484 11.5984 3.50484 10.9565V6.5284C3.50484 5.91496 3.85828 5.56152 4.46766 5.56152C6.99047 5.55746 9.50922 5.56152 12.032 5.56152H19.5395C20.1895 5.56152 20.5348 5.90277 20.5348 6.55684V10.9646Z" fill="#018058"/>
<path d="M17.0082 20.991C15.562 21.3648 14.1564 20.2963 14.1482 18.8013C14.1401 17.3429 14.1442 15.8885 14.1482 14.4301C14.1482 14.0442 14.4001 13.772 14.7536 13.772C15.107 13.772 15.3629 14.0442 15.3629 14.4301V16.6157C15.3629 17.347 15.3589 18.0742 15.367 18.8013C15.3711 19.3985 15.8707 19.8698 16.4598 19.8495C17.057 19.8292 17.5161 19.3335 17.4917 18.7363C17.4673 18.1838 17.0204 17.7532 16.4517 17.7248C15.9845 17.7004 15.6961 17.2901 15.8667 16.8838C15.9642 16.6442 16.1876 16.506 16.472 16.5101C17.6054 16.5142 18.5479 17.3835 18.6982 18.5535C18.8364 19.6301 18.0848 20.7148 17.0082 20.991Z" fill="#018058"/>
<path d="M10.8007 16.0344C10.8007 16.5585 10.8089 17.0825 10.8007 17.6107C10.7845 18.5207 10.0939 19.2966 9.21636 19.3941C8.27386 19.4997 7.43699 18.931 7.20949 18.0291C7.17699 17.9032 7.16074 17.7691 7.15667 17.635C7.14449 17.2654 7.39636 16.9891 7.74574 16.9769C8.0748 16.9647 8.34292 17.2247 8.3673 17.5863C8.39574 17.9479 8.64761 18.1957 8.98886 18.1916C9.33824 18.1835 9.58605 17.9154 9.58605 17.5375V14.4216C9.58605 14.1575 9.68761 13.9544 9.9273 13.8366C10.3295 13.6335 10.7926 13.9179 10.8007 14.381C10.8089 14.9294 10.8007 15.4819 10.8007 16.0344Z" fill="#018058"/>
<path d="M12.9295 14.4464V17.3511C12.9295 17.7533 12.6777 18.0295 12.3161 18.0255C11.9586 18.0255 11.7148 17.7492 11.7148 17.343V14.4342C11.7148 14.0442 11.9627 13.772 12.3161 13.772C12.6777 13.768 12.9295 14.0442 12.9295 14.4464Z" fill="#018058"/>
<path d="M18.556 10.469C18.5357 10.7655 18.2879 11.0093 17.9873 11.0296C17.9142 11.0377 17.8451 11.0337 17.776 11.0337H6.14509C5.67384 11.0337 5.36916 10.6396 5.51541 10.2252C5.60478 9.98146 5.78353 9.8474 6.03947 9.81896C6.09634 9.8149 6.15322 9.81896 6.21009 9.81896C10.0817 9.8149 13.9532 9.8149 17.8248 9.81896C17.906 9.81896 17.9913 9.8149 18.0685 9.83115C18.3692 9.89209 18.5763 10.1683 18.556 10.469Z" fill="#018058"/>
<path d="M19.3163 6.78824C19.3082 7.11731 19.0319 7.38949 18.6988 7.38137C18.3697 7.37731 18.0975 7.10106 18.1016 6.77199C18.1016 6.43074 18.386 6.15856 18.7272 6.16668C19.0563 6.17887 19.3244 6.45918 19.3163 6.78824Z" fill="#018058"/>
</svg>
