<svg width="24" height="25" viewBox="0 0 24 25" fill="none" xmlns="http://www.w3.org/2000/svg">
<path d="M22.5004 22.0384C22.4004 22.0284 22.2904 22.0284 22.2004 22.0284H22.0604V16.5284H22.4504C22.8704 16.5084 23.1904 16.1984 23.1904 15.7984C23.1904 15.5984 23.1204 15.4084 22.9904 15.2684C22.8504 15.1284 22.6504 15.0484 22.4404 15.0484C22.0204 15.0384 21.6004 15.0384 21.1804 15.0384H19.7004V4.26836C19.7004 2.38836 18.3804 1.06836 16.5004 1.06836H7.4404C5.5604 1.06836 4.2404 2.38836 4.2404 4.26836V15.0384H3.9304C3.1104 15.0384 2.2904 15.0384 1.4704 15.0484C1.2704 15.0484 1.0904 15.1284 0.960401 15.2584C0.820401 15.3984 0.750401 15.5884 0.750401 15.7884C0.750401 16.1884 1.0604 16.4984 1.4704 16.5284H1.8804V22.0284H1.4604C1.0804 22.0584 0.780401 22.3484 0.750401 22.7184C0.720401 23.0884 0.980401 23.4284 1.3404 23.4984C1.4504 23.5184 1.5704 23.5184 1.6904 23.5184H22.5204C22.8904 23.4884 23.2004 23.1484 23.1904 22.7684C23.1904 22.3884 22.8804 22.0684 22.5004 22.0384ZM5.7304 4.31836C5.7304 3.19836 6.3704 2.54836 7.4904 2.54836H16.4704C17.5604 2.54836 18.2104 3.19836 18.2104 4.28836V15.0184H5.7304V4.31836ZM6.5604 22.0184H3.4104V16.5484H6.5604V22.0184ZM11.2104 22.0184H8.0804V16.5484H11.2104V22.0184ZM15.8604 22.0184H12.7304V16.5484H15.8604V22.0184ZM20.5304 22.0084H17.3804V16.5484H20.5304V22.0084Z" fill="#018058"/>
</svg>
