<svg width="24" height="25" viewBox="0 0 24 25" fill="none" xmlns="http://www.w3.org/2000/svg">
<g clip-path="url(#clip0_1650_12479)">
<path d="M23.9603 8.73855C23.8803 7.79855 23.6403 6.89855 23.2203 6.04855C22.2903 4.17856 20.8503 2.86855 18.8903 2.15855C18.2803 1.93855 17.6303 1.81855 16.9603 1.64855C16.9603 1.48855 16.9603 1.27855 16.9603 1.07855C16.9603 0.588555 16.6903 0.268555 16.2703 0.268555C15.8503 0.268555 15.5703 0.588555 15.5603 1.05855C15.5603 1.27855 15.5603 1.48855 15.5603 1.61855C14.7903 1.82855 14.0603 1.96855 13.3803 2.24855C11.3703 3.05855 9.95035 4.48855 9.11035 6.48855C8.72035 7.40855 8.54035 8.38855 8.54035 9.38855C8.54035 9.94855 9.07035 10.2686 9.58035 10.0186C9.70035 9.95855 9.81035 9.86856 9.93035 9.82856C10.2903 9.70856 10.6503 9.55855 11.0203 9.50855C11.7203 9.39855 12.3903 9.56855 12.9903 9.94855C13.3003 10.1386 13.6003 10.1486 13.9203 9.96855C14.2403 9.78855 14.5703 9.62855 14.9003 9.47855C15.1103 9.37855 15.3303 9.30855 15.5603 9.22855V17.1686H14.1703C14.1703 16.9386 14.1703 16.7286 14.1703 16.5186C14.1603 16.0486 14.0403 15.6086 13.7503 15.2286C13.2903 14.6286 12.6803 14.3686 11.9403 14.3786C9.83035 14.3786 7.72035 14.3786 5.61035 14.3786C5.38035 14.3786 5.23035 14.3086 5.09035 14.1186C4.61035 13.4686 4.14035 12.7986 3.60035 12.1886C2.67035 11.1486 0.840349 11.4486 0.240349 12.7186C-0.149651 13.5386 -0.0296514 14.3086 0.500349 15.0286C1.77035 16.7286 3.05035 18.4286 4.32035 20.1286C4.61035 20.5086 4.87035 20.9086 5.32035 21.1486C5.28035 21.2286 5.25035 21.2986 5.22035 21.3686C4.92035 21.9786 4.62035 22.5886 4.32035 23.1986C4.15035 23.5586 4.22035 23.9186 4.50035 24.1186C4.57035 24.1686 4.65035 24.2186 4.73035 24.2686H5.11035C5.39035 24.1386 5.55035 23.8986 5.68035 23.6286C6.00035 22.9486 6.35035 22.2686 6.67035 21.5886C6.73035 21.4586 6.80035 21.4086 6.95035 21.4086C11.2503 21.4086 15.5504 21.4086 19.8603 21.4086C20.0103 21.4086 20.0803 21.4586 20.1403 21.5886C20.4703 22.2686 20.8103 22.9486 21.1403 23.6286C21.2703 23.8986 21.4303 24.1386 21.7103 24.2686H22.0803C22.1703 24.2086 22.2703 24.1586 22.3503 24.0986C22.6103 23.8886 22.6703 23.5486 22.5003 23.2086C22.2003 22.5986 21.9003 21.9886 21.6003 21.3786C21.5703 21.3086 21.5403 21.2386 21.5003 21.1586C21.9403 20.8886 22.2803 20.5386 22.4503 20.0586C22.9804 18.6386 21.9703 17.2086 20.4203 17.1986C19.3703 17.1986 18.3103 17.1986 17.2603 17.1986H16.9903V9.23855C17.2203 9.32856 17.4503 9.39855 17.6603 9.49855C17.9903 9.64855 18.3104 9.80855 18.6203 9.97855C18.9403 10.1486 19.2303 10.1486 19.5503 9.95855C20.6403 9.31855 21.7303 9.31855 22.8303 9.95855C23.3503 10.2586 23.6503 10.1586 24.0003 9.60855V8.90856C23.9903 8.85855 23.9703 8.80855 23.9703 8.74855L23.9603 8.73855ZM12.7503 8.28856C11.8503 8.00855 10.9703 7.99855 10.0903 8.23855C9.98035 6.77855 12.0303 4.20855 13.7903 3.59855C13.0703 5.07855 12.8203 6.64855 12.7503 8.27855V8.28856ZM6.56035 15.7886C8.35035 15.7886 10.1403 15.7886 11.9303 15.7886C12.4803 15.7886 12.7503 16.0586 12.7503 16.6086C12.7503 16.7986 12.7503 16.9786 12.7503 17.1886H10.1403C9.29035 17.1886 8.44035 17.1886 7.59035 17.1886C7.44035 17.1886 7.35035 17.1486 7.26035 17.0186C6.97035 16.6186 6.67035 16.2186 6.35035 15.7886C6.44035 15.7886 6.51035 15.7686 6.57035 15.7686L6.56035 15.7886ZM20.3403 18.5986C20.6803 18.5986 20.9604 18.6886 21.1203 19.0086C21.3303 19.4386 21.0403 19.9486 20.5603 19.9986C20.4703 19.9986 20.3903 19.9986 20.3003 19.9986H13.4103C11.1003 19.9986 8.79035 19.9986 6.47035 19.9986C6.13035 19.9986 5.88035 19.8686 5.68035 19.5986C4.33035 17.7886 2.97035 15.9886 1.62035 14.1786C1.29035 13.7386 1.37035 13.2386 1.81035 13.0286C2.13035 12.8786 2.47035 12.9686 2.71035 13.2986C3.49035 14.3386 4.28035 15.3786 5.06035 16.4286C5.55035 17.0886 6.05035 17.7386 6.53035 18.3986C6.63035 18.5386 6.74035 18.5886 6.91035 18.5886C11.3903 18.5886 15.8603 18.5886 20.3403 18.5886V18.5986ZM14.1303 8.27855C14.2003 7.64855 14.2503 7.07855 14.3403 6.50855C14.4903 5.60855 14.7303 4.73855 15.2103 3.95855C15.3503 3.72855 15.5303 3.50855 15.7203 3.32855C16.0803 2.99855 16.4403 2.98855 16.7803 3.32855C17.0403 3.59855 17.2803 3.90855 17.4603 4.23855C17.9403 5.14855 18.1503 6.13855 18.2703 7.14855C18.3104 7.49855 18.3303 7.85855 18.3703 8.26855C16.9503 7.58855 15.5703 7.58855 14.1303 8.26855V8.27855ZM19.7803 8.28856C19.7003 6.66856 19.4603 5.09855 18.7403 3.62855C20.4403 4.20855 22.1703 6.18855 22.4503 8.24855C21.5504 7.99855 20.6703 8.00855 19.7703 8.28856H19.7803Z" fill="#018058"/>
</g>
<defs>
<clipPath id="clip0_1650_12479">
<rect width="24" height="24" fill="white" transform="translate(0 0.268555)"/>
</clipPath>
</defs>
</svg>
