<svg width="24" height="25" viewBox="0 0 24 25" fill="none" xmlns="http://www.w3.org/2000/svg">
<g clip-path="url(#clip0_1650_12313)">
<path d="M4.76 4.49879C6.46 4.45879 8.17 4.48879 9.87 4.48879C9.89 4.48879 9.91 4.49879 9.96 4.49879C9.98 4.58879 10.01 4.68879 10.04 4.77879C10.46 6.23879 11.83 7.28879 13.35 7.29879C15.69 7.29879 18.03 7.29879 20.38 7.29879C20.85 7.29879 21.13 7.00879 21.14 6.53879V5.89879C21.79 5.89879 22.43 5.87879 23.06 5.89879C23.49 5.91879 23.81 5.78879 24 5.37879V2.18879C23.81 1.78879 23.5 1.64879 23.06 1.66879C22.43 1.68879 21.8 1.66879 21.15 1.66879C21.12 1.13879 21.29 0.538789 20.63 0.258789H13.03C12.65 0.378789 12.24 0.448789 11.88 0.618789C10.91 1.07879 10.29 1.85879 10.01 2.88879C9.99 2.93879 9.98 2.99879 9.96 3.06879H9.68C8.14 3.06879 6.61 3.08879 5.07 3.06879C2.37 3.02879 0.3 5.04879 0.04 7.39879C0.04 7.44879 0.01 7.48879 0 7.53879V8.46879C0.06 8.73879 0.1 9.00879 0.17 9.26879C0.76 11.4488 2.69 12.9188 4.96 12.9188C9.63 12.9188 14.3 12.9188 18.98 12.9188C20.69 12.9188 22.14 14.0888 22.52 15.7688C22.94 17.6888 21.54 19.7088 19.59 19.9888C19.42 20.0188 19.25 20.0388 19.08 20.0388H14.2C14.2 20.0388 14.11 20.0388 14.04 20.0288C14.01 19.9188 13.99 19.8088 13.95 19.6988C13.49 18.2388 12.17 17.2388 10.63 17.2288C8.27 17.2288 5.91 17.2288 3.55 17.2288C3.11 17.2288 2.82 17.5188 2.81 17.9588V18.6388C2.17 18.6388 1.56 18.6488 0.94 18.6288C0.51 18.6088 0.19 18.7388 0 19.1488V22.3388C0.19 22.7388 0.5 22.8788 0.94 22.8588C1.55 22.8388 2.17 22.8588 2.81 22.8588C2.83 23.3888 2.67 23.9888 3.33 24.2688H10.97C11.14 24.2288 11.32 24.1988 11.49 24.1488C12.76 23.7788 13.6 22.9588 13.98 21.6788C14 21.6188 14.02 21.5488 14.04 21.4588H18.93C21.53 21.4588 23.59 19.6688 23.96 17.0888C23.96 17.0488 23.99 16.9988 24 16.9588V16.0188C23.94 15.7488 23.9 15.4788 23.83 15.2188C23.23 13.0188 21.28 11.5188 18.99 11.5188H4.95C3.24 11.5188 1.84 10.3688 1.48 8.69879C1.03 6.62879 2.64 4.53879 4.76 4.49879ZM21.16 3.09879H22.58V4.47879H21.16V3.09879ZM13.26 1.68879C15.31 1.65879 17.37 1.67879 19.42 1.67879H19.72V5.87879C19.65 5.88879 19.57 5.88879 19.5 5.88879C17.48 5.89879 15.47 5.89879 13.46 5.88879C12.21 5.88879 11.26 4.92879 11.3 3.70879C11.33 2.64879 12.2 1.70879 13.26 1.68879ZM2.8 21.4488H1.42V20.0688H2.8V21.4488ZM10.76 22.8488C8.59 22.8788 6.42 22.8588 4.24 22.8588V18.6488H4.55C6.55 18.6488 8.55 18.6388 10.55 18.6488C11.77 18.6488 12.72 19.5888 12.7 20.7888C12.69 21.8688 11.84 22.8288 10.76 22.8488Z" fill="#018058"/>
<path d="M11.3001 20.7483C11.3001 21.1583 10.9801 21.4583 10.5101 21.4583H6.42011C5.94011 21.4583 5.62011 21.1683 5.63011 20.7483C5.63011 20.3383 5.95011 20.0483 6.42011 20.0483H10.5201C10.9701 20.0483 11.2901 20.3383 11.3001 20.7483Z" fill="#018058"/>
<path d="M18.3302 3.78861C18.3202 4.20861 18.0102 4.48861 17.5302 4.48861H13.4802C13.0302 4.48861 12.7102 4.19861 12.7002 3.78861C12.7002 3.37861 13.0202 3.07861 13.4902 3.07861H17.5402C18.0102 3.07861 18.3302 3.36861 18.3302 3.78861Z" fill="#018058"/>
</g>
<defs>
<clipPath id="clip0_1650_12313">
<rect width="24" height="24" fill="white" transform="translate(0 0.268555)"/>
</clipPath>
</defs>
</svg>
