<svg width="24" height="25" viewBox="0 0 24 25" fill="none" xmlns="http://www.w3.org/2000/svg">
<path d="M21.0101 18.3388V7.75879C21.2701 7.75879 21.5101 7.76879 21.7501 7.75879C22.1701 7.74879 22.4901 7.43879 22.5001 7.01879C22.5001 5.97879 22.5101 4.93879 22.4901 3.89879C22.4701 2.85879 21.6601 1.96879 20.6201 1.79879C20.4801 1.77879 20.3301 1.75879 20.1801 1.75879H3.8201C2.4701 1.75879 1.5001 2.73879 1.5001 4.07879C1.4901 5.02879 1.4901 5.96879 1.5001 6.91879C1.5001 7.46879 1.7901 7.75879 2.3501 7.75879C2.5601 7.76879 2.7601 7.76879 3.0001 7.76879V7.94879C3.0001 11.3788 2.9901 14.7988 3.0001 18.2188C3.0001 18.3588 2.9601 18.4188 2.8301 18.4788C1.9001 18.8988 1.3601 19.8788 1.5201 20.8388C1.7101 22.0088 2.6201 22.7688 3.8101 22.7688H19.4901C19.7701 22.7688 20.0601 22.7888 20.3401 22.7688C21.2801 22.6988 21.9701 22.2388 22.3301 21.3688C22.6801 20.4888 22.5201 19.6688 21.8701 18.9788C21.6301 18.7388 21.3201 18.5688 21.0101 18.3388ZM20.3001 21.2688H3.9101C3.8101 21.2688 3.7101 21.2788 3.6101 21.2588C3.2301 21.1888 2.9701 20.8288 3.0001 20.4588C3.0301 20.0888 3.3301 19.7888 3.7101 19.7688C4.0101 19.7588 4.3201 19.7688 4.6201 19.7688H20.1001C20.2001 19.7688 20.3001 19.7688 20.4001 19.7888C20.7701 19.8588 21.0201 20.1988 21.0001 20.5688C20.9701 20.9388 20.6701 21.2388 20.3001 21.2688ZM9.8301 10.7688H11.2401V11.4988H12.7401V10.7688H14.1801C14.6901 10.7588 15.0001 10.4588 15.0001 9.94879V7.77879H19.4901V18.2588H15.6901C15.7201 17.5188 15.7501 16.7888 15.7701 16.0188H17.2401V14.5288H15.7501V13.8288C15.7401 13.3188 15.4401 13.0188 14.9301 13.0188H9.0701C8.5501 13.0188 8.2501 13.3188 8.2501 13.8288C8.2501 15.0488 8.2401 16.2688 8.2501 17.4888C8.2501 17.7388 8.3101 17.9988 8.3401 18.2588H4.5101V7.77879H9.0001V9.93879C9.0001 10.4588 9.3001 10.7588 9.8301 10.7688ZM10.5201 9.24879V7.77879H13.4901V9.24879H10.5201ZM14.2501 14.7288V17.4188C14.2501 17.9688 13.9501 18.2688 13.4101 18.2688H10.5701C10.0501 18.2688 9.7501 17.9588 9.7501 17.4388V14.5288H14.2301C14.2401 14.5988 14.2501 14.6588 14.2501 14.7288ZM21.0001 6.25879H3.0101C3.0001 6.18879 3.0001 6.12879 3.0001 6.06879C3.0001 5.39879 2.9901 4.73879 3.0001 4.07879C3.0001 3.57879 3.3001 3.25879 3.7901 3.25879H20.2001C20.6801 3.25879 21.0001 3.57879 21.0001 4.04879V6.25879Z" fill="#018058"/>
<path d="M19.4798 4.02832H13.5098V5.49832H19.4798V4.02832Z" fill="#018058"/>
<path d="M5.98977 4.02832H4.50977V5.49832H5.98977V4.02832Z" fill="#018058"/>
<path d="M8.22976 4.02832H6.75977V5.49832H8.22976V4.02832Z" fill="#018058"/>
<path d="M10.4798 4.02832H9.00977V5.49832H10.4798V4.02832Z" fill="#018058"/>
</svg>
