<svg width="24" height="25" viewBox="0 0 24 25" fill="none" xmlns="http://www.w3.org/2000/svg">
<path d="M21.75 12.8982C20.491 12.4129 18.1579 10.4908 14.0526 13.3796C12.9735 12.8134 10.9737 11.4538 7.89474 13.8611C7.53501 12.4862 7.46307 9.35636 7.89474 6.63881C8.0746 6.23441 8.8155 5.94812 10.9737 8.08331L13.5395 5.67593C13.3596 4.62448 12 3.26855 7.89474 3.26855C6.35526 3.26855 4.95008 4.50369 4.30263 6.63886C3.4933 8.82263 2.25 13.8611 2.25 16.7501C2.24999 17.6397 3.53289 19.639 8.40789 19.639C9.43421 19.639 12.4363 19.7474 16.1053 18.1945L19.1842 20.6019" stroke="#018058" stroke-width="1.5" stroke-linecap="round" stroke-linejoin="round"/>
</svg>
