<svg width="24" height="25" viewBox="0 0 24 25" fill="none" xmlns="http://www.w3.org/2000/svg">
<g clip-path="url(#clip0_1650_12440)">
<path d="M23.4702 10.9887C23.3202 10.9587 23.2802 10.8787 23.2602 10.7487C23.0902 9.8687 22.5902 9.2487 21.8002 8.85871C21.7002 8.80871 21.6102 8.71871 21.5702 8.61871C21.1302 7.69871 20.4202 7.1687 19.4002 7.0487C19.3102 7.0387 19.2002 6.9687 19.1502 6.8987C18.6402 6.0087 17.8902 5.5187 16.8602 5.5187C15.8302 5.5087 15.0702 5.9987 14.5502 6.8987C14.5102 6.9687 14.4102 7.0387 14.3302 7.0487C13.2802 7.1687 12.5502 7.7087 12.1202 8.6687C12.0902 8.7287 12.0402 8.79871 11.9802 8.82871C11.1102 9.22871 10.6002 9.87871 10.4302 10.8087C10.4202 10.8687 10.3502 10.9387 10.3002 10.9587C9.8602 11.1087 9.7002 11.3187 9.7002 11.7687V14.4687C9.7002 15.0887 9.9502 15.3487 10.5902 15.3387C10.7902 15.3287 10.8502 15.4087 10.8802 15.5887C11.3402 18.2287 11.8002 20.8687 12.2602 23.4987C12.3202 23.8787 12.4802 24.1387 12.8402 24.2687H20.8602C21.2202 24.1387 21.3802 23.8787 21.4502 23.5087C21.8802 20.9587 22.3402 18.4087 22.7802 15.8687C22.7802 15.8487 22.7802 15.8387 22.7802 15.8187C22.8502 15.3787 22.8502 15.3687 23.3002 15.3387C23.6602 15.3187 23.8602 15.1087 23.9902 14.7987V11.4687C23.8702 11.2487 23.7302 11.0387 23.4602 10.9887H23.4702ZM12.6302 10.0987C13.0802 9.9987 13.3002 9.7487 13.4002 9.3087C13.5202 8.7387 14.0602 8.4087 14.6402 8.4587C14.7102 8.4687 14.7802 8.47871 14.8502 8.48871C15.2402 8.55871 15.5502 8.3487 15.6702 7.9687C15.7302 7.7787 15.7902 7.5587 15.9102 7.3987C16.1902 6.9987 16.6102 6.8487 17.0802 6.9387C17.5602 7.0387 17.8702 7.3387 18.0002 7.8087C18.1502 8.3887 18.3702 8.5487 18.9702 8.4687C19.6602 8.3787 20.2002 8.7587 20.3402 9.4387C20.4202 9.79871 20.6402 9.98871 20.9802 10.0687C21.4402 10.1787 21.7302 10.4687 21.8602 10.9487H11.8802C11.8902 10.5887 12.2002 10.1987 12.6302 10.0987ZM21.2302 16.6187C20.8702 18.6287 20.5102 20.6387 20.1702 22.6487C20.1402 22.8287 20.0702 22.8587 19.9102 22.8587H13.8002C13.6202 22.8587 13.5602 22.8087 13.5302 22.6387C13.1302 20.2787 12.7102 17.9187 12.2902 15.5587C12.2902 15.4987 12.2902 15.4387 12.2902 15.3587H13.4202C13.3202 16.6387 13.6702 17.7487 14.6802 18.5787C15.3202 19.1087 16.0702 19.3787 16.9102 19.3587C17.9602 19.3387 18.8302 18.9187 19.5102 18.1287C20.1802 17.3287 20.3802 16.3887 20.3002 15.3587H21.4502C21.3802 15.7887 21.3102 16.1987 21.2402 16.6187H21.2302ZM14.8302 15.3487H18.8702C18.9802 16.2187 18.8202 16.9987 18.0702 17.5487C17.3802 18.0587 16.6202 18.1087 15.8702 17.6987C14.9602 17.1987 14.7202 16.3587 14.8302 15.3487ZM22.5802 13.9187H11.1202V12.3787H22.5802V13.9187Z" fill="#018058"/>
<path d="M10.78 23.2486C10.65 22.5886 10.51 21.9286 10.38 21.2686C10.25 20.5986 10.07 19.9286 10 19.2486C9.89 18.2486 9.49 17.4286 8.66 16.8586C8.28 16.5986 7.83 16.4386 7.4 16.2286C7.39 16.2286 7.38 16.2586 7.36 16.2786V2.28855C7.36 1.33855 6.79 0.578555 5.91 0.338555C5.83 0.318555 5.75 0.288555 5.67 0.268555H5.16C5.16 0.268555 5.09 0.298555 5.05 0.308555C4.09 0.518555 3.47 1.27855 3.47 2.26855V16.2386C3.1 16.3986 2.73 16.5086 2.41 16.6986C1.45 17.2686 0.95 18.1386 0.83 19.2586C0.76 19.9186 0.59 20.5586 0.46 21.2086C0.33 21.8886 0.19 22.5686 0.05 23.2486C0.04 23.2986 0.02 23.3386 0 23.3786V23.7486C0.13 23.9886 0.3 24.1786 0.56 24.2686H10.27C10.77 24.0286 10.89 23.8086 10.78 23.2486ZM4.87 2.31855C4.87 1.84855 5.21 1.57855 5.6 1.71855C5.81 1.78855 5.92 1.94855 5.95 2.16855C5.96 2.24855 5.96 2.32855 5.96 2.39855V16.2386H4.89C4.88 16.1786 4.87 16.1086 4.87 16.0386V2.31855ZM3.91 17.6686C4.91 17.6386 5.92 17.6386 6.93 17.6686C7.62 17.6886 8.11 18.0786 8.44 18.7186H2.39C2.72 18.0786 3.21 17.6886 3.91 17.6686ZM3.12 22.8486H1.57C1.75 21.9386 1.93 21.0486 2.11 20.1586H3.31C3.25 21.0586 3.18 21.9486 3.12 22.8486ZM4.53 22.8486C4.6 21.9486 4.66 21.0586 4.72 20.1486H6.11C6.17 21.0486 6.24 21.9386 6.3 22.8486H4.53ZM7.71 22.8486C7.65 21.9586 7.59 21.0686 7.52 20.1586H8.72C8.9 21.0586 9.08 21.9486 9.26 22.8486H7.71Z" fill="#018058"/>
<path d="M23.9998 2.65862V3.03862C23.9998 3.03862 23.9498 3.10862 23.9298 3.14862C23.7598 3.45862 23.4498 3.60862 23.1298 3.51862C22.8098 3.42862 22.5898 3.15862 22.5898 2.83862C22.5898 2.51862 22.8198 2.23862 23.1298 2.15862C23.4498 2.07862 23.7698 2.23862 23.9298 2.54862C23.9498 2.58862 23.9798 2.61862 23.9998 2.65862Z" fill="#018058"/>
<path d="M11.1102 2.83867C11.1102 3.21867 10.7902 3.53867 10.4102 3.54867C10.0302 3.54867 9.7002 3.21867 9.7002 2.82867C9.7102 2.44867 10.0302 2.13867 10.4102 2.13867C10.8002 2.14867 11.1102 2.45867 11.1102 2.83867Z" fill="#018058"/>
<path d="M11.7703 5.48857C11.7703 5.87857 11.4603 6.18857 11.0803 6.18857C10.6903 6.19857 10.3703 5.87857 10.3703 5.49857C10.3603 5.11857 10.6803 4.79857 11.0603 4.78857C11.4503 4.78857 11.7703 5.09857 11.7703 5.48857Z" fill="#018058"/>
<path d="M13.7604 3.50834C13.7604 3.88834 13.4404 4.20834 13.0504 4.20834C12.6604 4.20834 12.3604 3.88834 12.3604 3.49834C12.3604 3.10834 12.6804 2.79834 13.0604 2.79834C13.4504 2.79834 13.7604 3.12834 13.7604 3.50834Z" fill="#018058"/>
<path d="M23.3397 5.48857C23.3397 5.86857 23.0297 6.18857 22.6397 6.18857C22.2497 6.19857 21.9397 5.88857 21.9297 5.49857C21.9297 5.11857 22.2397 4.79857 22.6297 4.78857C23.0097 4.78857 23.3297 5.09857 23.3397 5.48857Z" fill="#018058"/>
<path d="M21.3397 3.51857C21.3297 3.90857 21.0097 4.21857 20.6297 4.20857C20.2497 4.19857 19.9297 3.86857 19.9397 3.48857C19.9597 3.10857 20.2797 2.78857 20.6597 2.79857C21.0497 2.79857 21.3497 3.13857 21.3397 3.51857Z" fill="#018058"/>
</g>
<defs>
<clipPath id="clip0_1650_12440">
<rect width="24" height="24" fill="white" transform="translate(0 0.268555)"/>
</clipPath>
</defs>
</svg>
