<svg width="24" height="25" viewBox="0 0 24 25" fill="none" xmlns="http://www.w3.org/2000/svg">
<g clip-path="url(#clip0_1651_12580)">
<path d="M23.97 15.3986C23.7 14.2686 22.93 13.6586 21.77 13.6486H20.34C20.27 13.6486 20.19 13.6486 20.11 13.6386C20.15 13.5286 20.18 13.4586 20.21 13.3886C21.18 11.1186 22.16 8.83864 23.13 6.56864C23.38 5.97864 23.64 5.39864 23.89 4.80864C24 4.53864 23.97 4.28864 23.79 4.05864C23.6 3.83864 23.36 3.76864 23.09 3.82864C22.8 3.88864 22.66 4.09864 22.55 4.35864C21.25 7.38864 19.95 10.4086 18.66 13.4386C18.6 13.5786 18.54 13.6586 18.36 13.6586C14.12 13.6486 9.88 13.6486 5.64 13.6586C5.48 13.6586 5.41 13.5986 5.35 13.4586C4.79 12.1386 4.22 10.8186 3.65 9.49863C2.92 7.77863 2.18 6.05864 1.44 4.33864C1.33 4.07864 1.18 3.87864 0.89 3.82864C0.61 3.77864 0.37 3.84864 0.2 4.07864C0.01 4.32864 0.02 4.58864 0.14 4.86864C1.24 7.43864 2.34 10.0086 3.44 12.5686C3.59 12.9186 3.74 13.2686 3.9 13.6386C3.79 13.6486 3.71 13.6486 3.64 13.6486H2.14C1.43 13.6586 0.83 13.9286 0.43 14.5086C0.23 14.7886 0.14 15.1386 0 15.4586V20.2886C0.16 20.6286 0.27 21.0086 0.49 21.2986C0.9 21.8686 1.51 22.0886 2.21 22.0886H2.86V22.7886C2.86 23.2286 3.16 23.5386 3.56 23.5386C3.96 23.5386 4.26 23.2286 4.27 22.7986V22.1086H19.73V22.7486C19.74 23.2186 20.02 23.5386 20.44 23.5386C20.86 23.5386 21.14 23.2186 21.14 22.7386V22.0786C21.43 22.0786 21.69 22.0986 21.96 22.0786C23 22.0186 23.73 21.3886 23.96 20.3686C23.96 20.3386 23.99 20.3086 24 20.2886V15.4586C24 15.4586 23.97 15.4186 23.97 15.3986ZM22.59 19.8386C22.59 20.4186 22.33 20.6886 21.75 20.6886H15.86C11.36 20.6886 6.85 20.6886 2.34 20.6786C2.17 20.6786 1.99 20.6786 1.84 20.6186C1.55 20.5086 1.41 20.2786 1.41 19.9786C1.41 18.5686 1.41 17.1586 1.41 15.7586C1.41 15.3686 1.7 15.0886 2.09 15.0586H21.71C22.35 15.0586 22.59 15.2986 22.59 15.9486V19.8386Z" fill="#018058"/>
<path d="M19.5997 4.86876C19.4697 5.14876 19.1897 5.33876 18.8997 5.26876C18.7097 5.22876 18.5197 5.11876 18.3797 4.98876C17.3397 3.99876 16.1597 3.23876 14.7797 2.83876C11.4097 1.85876 8.38967 2.51876 5.76967 4.85876C5.67967 4.93876 5.60967 5.01876 5.52967 5.08876C5.21967 5.35876 4.80967 5.34876 4.53967 5.06876C4.25967 4.78876 4.26967 4.35876 4.56967 4.05876C5.42967 3.19876 6.41967 2.50876 7.51967 1.98876C8.93967 1.31876 10.4397 0.988756 12.6797 0.998756C14.8697 1.02876 17.3397 2.02876 19.3897 4.02876C19.6597 4.27876 19.7297 4.58876 19.5997 4.86876Z" fill="#018058"/>
<path d="M17.5797 6.91857C17.4297 7.17857 17.1297 7.32857 16.8197 7.24857C16.6897 7.20857 16.5497 7.12857 16.4397 7.02857C15.0397 5.69857 13.3797 5.08857 11.4497 5.23857C9.96971 5.35857 8.69971 5.95857 7.61971 6.96857C7.49971 7.07857 7.34971 7.18857 7.19971 7.23857C6.88971 7.33857 6.56971 7.18857 6.41971 6.90857C6.25971 6.61857 6.30971 6.29857 6.54971 6.05857C7.36971 5.24857 8.30971 4.63857 9.39971 4.25857C10.2397 3.94857 11.1097 3.79857 12.0097 3.80857C14.1097 3.82857 15.9197 4.56857 17.4297 6.03857C17.6897 6.29857 17.7397 6.61857 17.5797 6.91857Z" fill="#018058"/>
<path d="M15.69 8.44862C15.67 8.84862 15.54 9.06862 15.27 9.18862C14.98 9.32862 14.71 9.26862 14.48 9.04862C14.03 8.60862 13.52 8.28862 12.91 8.14862C11.65 7.83862 10.53 8.11862 9.56999 8.99862C9.37999 9.17862 9.16999 9.29862 8.89999 9.24862C8.61999 9.19862 8.42999 9.02862 8.34999 8.75862C8.26999 8.47862 8.34999 8.23862 8.54999 8.03862C9.25999 7.33862 10.1 6.87862 11.08 6.70862C12.74 6.41862 14.19 6.84862 15.41 8.00862C15.56 8.14862 15.63 8.34862 15.69 8.44862Z" fill="#018058"/>
<path d="M13.5202 11.0084C13.2602 11.3084 12.8302 11.3184 12.5002 11.0484C12.1602 10.7684 11.8402 10.7684 11.5102 11.0484C11.1702 11.3184 10.7402 11.3084 10.4802 11.0084C10.2202 10.7084 10.2602 10.2784 10.5802 9.98838C10.9902 9.60838 11.4802 9.42838 12.0302 9.43838C12.5702 9.43838 13.0202 9.62838 13.4202 9.97838C13.7402 10.2684 13.7802 10.6984 13.5202 11.0084Z" fill="#018058"/>
<path d="M15.5099 17.1687C15.5199 17.6387 15.5199 18.1087 15.5099 18.5687C15.5099 18.9787 15.1999 19.2687 14.8099 19.2687C14.4199 19.2687 14.1199 18.9687 14.1099 18.5687C14.0999 18.3387 14.1099 18.0987 14.1099 17.8687C14.1099 17.6387 14.0999 17.3987 14.1099 17.1687C14.1199 16.7687 14.4299 16.4688 14.8099 16.4688C15.1899 16.4688 15.5099 16.7687 15.5099 17.1687Z" fill="#018058"/>
<path d="M18.3299 17.1585C18.3299 17.6385 18.3399 18.1085 18.3199 18.5885C18.3199 18.9785 18.0099 19.2685 17.6299 19.2685C17.2499 19.2785 16.9399 18.9785 16.9199 18.5785V17.1685C16.9299 16.7685 17.2299 16.4685 17.6199 16.4685C18.0099 16.4585 18.3199 16.7585 18.3299 17.1585Z" fill="#018058"/>
<path d="M21.1405 17.1687C21.1505 17.6287 21.1505 18.0987 21.1405 18.5687C21.1305 18.9687 20.8305 19.2687 20.4405 19.2687C20.0505 19.2687 19.7505 18.9787 19.7405 18.5787C19.7305 18.3287 19.7305 18.0887 19.7305 17.8487C19.7305 17.6087 19.7305 17.3987 19.7405 17.1687C19.7505 16.7687 20.0505 16.4688 20.4405 16.4688C20.8305 16.4688 21.1305 16.7587 21.1405 17.1687Z" fill="#018058"/>
</g>
<defs>
<clipPath id="clip0_1651_12580">
<rect width="24" height="24" fill="white" transform="translate(0 0.268555)"/>
</clipPath>
</defs>
</svg>
