<svg width="24" height="25" viewBox="0 0 24 25" fill="none" xmlns="http://www.w3.org/2000/svg">
<g clip-path="url(#clip0_1651_12601)">
<path d="M16.5698 9.57878C18.7398 9.57878 20.9198 9.57878 23.0998 9.58878C23.5298 9.58878 23.8398 9.44878 23.9998 9.02878V8.70878C23.8298 8.29878 23.5198 8.16878 23.0898 8.16878C20.9098 8.16878 18.7298 8.16878 16.5598 8.16878H16.2598V7.89878C16.2598 6.99878 16.2598 6.09878 16.2498 5.19878C16.2498 4.48878 15.9998 3.87878 15.4198 3.44878C14.7498 2.94878 14.0098 2.85878 13.2598 3.20878C12.4898 3.56878 12.0698 4.18878 12.0498 5.03878C12.0198 5.98878 12.0398 6.94878 12.0398 7.89878C12.0398 7.97878 12.0398 8.06878 12.0398 8.15878H9.15977V7.87878C9.15977 6.98878 9.15977 6.09878 9.14977 5.20878C9.14977 4.98878 9.12977 4.74878 9.06977 4.53878C8.77977 3.50878 7.80977 2.88878 6.72977 3.03878C5.73977 3.16878 4.95977 4.04878 4.93977 5.09878C4.92977 6.02878 4.93977 6.95878 4.93977 7.88878V8.16878H4.63977C3.39977 8.16878 2.15977 8.18878 0.919766 8.16878C0.489766 8.15878 0.179766 8.29878 0.00976562 8.70878V9.02878C0.169766 9.44878 0.479766 9.58878 0.909766 9.58878C3.08977 9.57878 5.26977 9.57878 7.43977 9.57878H7.72977V15.9188C6.94977 15.9588 6.28977 16.3788 5.56977 16.6488C4.77977 16.9488 3.95977 16.9188 3.17977 16.5588C2.61977 16.3088 2.08977 16.0188 1.46977 15.9488C1.21977 15.9188 0.969766 15.8988 0.719766 15.8988C0.349766 15.8988 0.139766 16.1188 0.00976562 16.4388V16.7688C0.169766 17.1488 0.459766 17.3188 0.869766 17.3088C1.41977 17.3088 1.90977 17.4988 2.37977 17.7488C3.51977 18.3288 4.69977 18.3788 5.90977 18.0288C6.22977 17.9288 6.53977 17.7588 6.84977 17.6188C7.77977 17.1888 8.70977 17.1788 9.62977 17.6188C10.1498 17.8588 10.6498 18.1188 11.2298 18.1888C12.2498 18.3288 13.2398 18.2388 14.1598 17.7288C14.8998 17.3188 15.6898 17.2088 16.5098 17.3988C16.8298 17.4688 17.1298 17.6088 17.4198 17.7488C18.8298 18.4288 20.2398 18.4388 21.6398 17.7488C22.1698 17.4888 22.7098 17.3088 23.3098 17.3088C23.6798 17.3088 23.8698 17.0788 24.0098 16.7788V16.4488C23.8398 16.0288 23.5298 15.8888 23.0898 15.9088C22.4098 15.9488 21.7698 16.0988 21.1798 16.4188C20.3298 16.8788 19.4398 16.9688 18.5098 16.6888C18.3698 16.6388 18.2198 16.5688 18.0798 16.4988C17.5198 16.2088 16.9398 15.9788 16.2798 15.9288V9.58878H16.5798L16.5698 9.57878ZM7.73977 8.15878H6.32977V5.19878C6.33977 4.72878 6.62977 4.40878 7.04977 4.41878C7.45977 4.41878 7.73977 4.73878 7.73977 5.19878V8.15878ZM9.15977 9.58878H14.8398V12.1088H9.15977V9.58878ZM14.8498 14.2088C14.8498 14.7388 14.8498 15.2688 14.8498 15.7988C14.8498 15.8688 14.7898 15.9688 14.7298 15.9988C14.2898 16.1788 13.8398 16.3388 13.4098 16.5288C12.4898 16.9388 11.5698 16.9488 10.6498 16.5388C10.1598 16.3288 9.67977 16.1288 9.16977 15.9088V13.5388H14.8598V14.2088H14.8498ZM14.8498 7.95878C14.8498 8.01878 14.8498 8.07878 14.8498 8.15878H13.4698C13.4598 8.07878 13.4498 8.00878 13.4498 7.92878V5.20878C13.4498 4.72878 13.7298 4.41878 14.1498 4.41878C14.5698 4.41878 14.8598 4.73878 14.8598 5.21878V7.95878H14.8498Z" fill="#018058"/>
<path d="M24 19.7185V20.0485C23.84 20.4385 23.56 20.6085 23.14 20.5985C22.57 20.5785 22.06 20.8085 21.57 21.0585C20.58 21.5685 19.53 21.6385 18.47 21.3985C18.03 21.3085 17.62 21.1085 17.21 20.9185C16.25 20.4685 15.28 20.4385 14.34 20.9185C13.19 21.5285 11.99 21.6885 10.74 21.3585C10.37 21.2585 10.02 21.0785 9.66 20.9085C8.72 20.4785 7.76 20.4285 6.84 20.9085C5.74 21.4785 4.6 21.6785 3.4 21.3985C2.97 21.3085 2.56 21.1085 2.16 20.9185C1.74 20.7285 1.32 20.5885 0.86 20.5985C0.45 20.5985 0.15 20.4385 0 20.0485V19.7185C0.17 19.2985 0.48 19.1585 0.93 19.1885C1.6 19.2185 2.24 19.3785 2.83 19.6885C3.91 20.2685 4.99 20.2585 6.08 19.7085C7.52 18.9785 8.98 18.9885 10.42 19.7185C11.51 20.2785 12.58 20.2485 13.67 19.6785C14.8 19.0885 15.98 19.0385 17.19 19.3985C17.52 19.4985 17.83 19.6685 18.15 19.8185C19.08 20.2385 20.02 20.2485 20.93 19.7985C21.61 19.4685 22.3 19.2085 23.07 19.1885C23.52 19.1685 23.83 19.2985 24 19.7185Z" fill="#018058"/>
</g>
<defs>
<clipPath id="clip0_1651_12601">
<rect width="24" height="24" fill="white" transform="translate(0 0.268555)"/>
</clipPath>
</defs>
</svg>
