<svg width="24" height="25" viewBox="0 0 24 25" fill="none" xmlns="http://www.w3.org/2000/svg">
<path d="M21.7428 13.9794C21.7299 12.8935 21.1137 12.0336 20.0936 11.6569C19.9539 11.6054 19.9357 11.5276 19.9357 11.4022C19.9386 10.0702 19.9381 8.7377 19.9376 7.40521C19.9372 7.09236 19.9071 6.7838 19.7588 6.50099C19.4059 5.82759 18.8408 5.51808 18.0872 5.51856C14.0268 5.52094 9.96641 5.51951 5.90552 5.51999C5.81061 5.51999 5.71475 5.52189 5.6208 5.53239C5.15915 5.58342 4.77715 5.78467 4.47431 6.13854C4.16432 6.50004 4.05749 6.92496 4.05797 7.38947C4.0594 8.72816 4.05654 10.0668 4.06178 11.4055C4.06226 11.5491 4.01934 11.6149 3.88103 11.6626C3.36072 11.8433 2.95773 12.1767 2.65156 12.6345C2.42407 12.9746 2.32297 13.3556 2.25 13.7491V17.4046C2.34634 17.5257 2.42264 17.676 2.54521 17.7585C2.6506 17.83 2.80799 17.8433 2.94343 17.8476C3.30874 17.8591 3.67501 17.8515 4.05844 17.8515C4.05844 17.9588 4.05749 18.0403 4.05844 18.1214C4.06178 18.4004 4.05272 18.6803 4.07227 18.9579C4.09183 19.2345 4.31454 19.4396 4.58209 19.4615C4.86728 19.4844 5.11432 19.3218 5.18634 19.048C5.21352 18.946 5.21543 18.8353 5.21686 18.7285C5.22067 18.439 5.21829 18.15 5.21829 17.8677H18.7788C18.7788 18.2192 18.7716 18.5549 18.7811 18.8902C18.7902 19.2211 19.0339 19.4586 19.3477 19.4634C19.6601 19.4677 19.8985 19.2507 19.9295 18.9298C19.9381 18.8415 19.9372 18.7523 19.9372 18.6636C19.9381 18.3994 19.9376 18.1352 19.9376 17.8515H20.168C20.4851 17.8515 20.8028 17.8567 21.1199 17.85C21.5095 17.841 21.7437 17.6116 21.7451 17.2339C21.748 16.1489 21.7556 15.0639 21.7428 13.9794ZM5.21829 11.292C5.21829 9.9853 5.21781 8.67809 5.21829 7.37135C5.21877 6.8892 5.43338 6.6722 5.91267 6.6722C9.96689 6.67172 14.0206 6.67173 18.0748 6.67173C18.5661 6.67173 18.7778 6.88633 18.7778 7.38184C18.7783 8.68238 18.7778 9.98291 18.7778 11.2834V11.4947H17.4219C17.4219 11.2348 17.431 10.9763 17.4196 10.7193C17.4076 10.4355 17.4205 10.1403 17.3466 9.87132C17.122 9.05389 16.4934 8.54646 15.6435 8.52071C14.7946 8.49448 13.9443 8.51737 13.0945 8.5312C12.7287 8.5374 12.4044 8.68286 12.1225 8.91416C12.0362 8.98474 11.9747 9.00095 11.8802 8.91988C11.5259 8.61657 11.1005 8.51069 10.6446 8.50926C9.92158 8.50735 9.19811 8.50354 8.47511 8.51021C7.35723 8.52071 6.58368 9.30284 6.57462 10.425C6.57176 10.7789 6.57415 11.1327 6.57415 11.4947H5.21829V11.292ZM16.2611 11.4904H12.5846C12.5846 11.0736 12.5622 10.6616 12.5918 10.2538C12.6171 9.9047 12.9013 9.67578 13.2557 9.6734C14.0359 9.66863 14.8161 9.66815 15.5963 9.67388C15.9512 9.67626 16.243 9.93761 16.2573 10.2815C16.274 10.6792 16.2611 11.0789 16.2611 11.4904ZM11.4138 11.4985H7.74925C7.74925 11.0598 7.72111 10.6234 7.75879 10.1923C7.7855 9.88324 8.07594 9.67578 8.39547 9.67388C9.18189 9.66863 9.96879 9.66815 10.7552 9.67435C11.1038 9.67674 11.3843 9.9171 11.4076 10.2681C11.4339 10.6706 11.4138 11.0765 11.4138 11.4985ZM20.5886 16.6067C20.5886 16.6248 20.5805 16.6425 20.5729 16.6735H3.41461C3.41128 16.6115 3.40603 16.5619 3.40603 16.5123C3.40555 15.7006 3.40222 14.8884 3.40651 14.0762C3.41128 13.2083 3.95257 12.6713 4.82293 12.6617C4.84201 12.6612 4.86108 12.6617 4.88016 12.6617C9.62494 12.6617 14.3702 12.6627 19.115 12.6598C19.5905 12.6593 20.0016 12.7829 20.3077 13.1692C20.5014 13.4133 20.5862 13.6952 20.5882 13.9995C20.5929 14.8684 20.5896 15.7378 20.5886 16.6067Z" fill="#018058"/>
</svg>
