<svg width="24" height="25" viewBox="0 0 24 25" fill="none" xmlns="http://www.w3.org/2000/svg">
<g clip-path="url(#clip0_1650_12348)">
<path d="M21.0803 0.558594H2.87027C1.30027 0.558594 0.280273 1.57859 0.280273 3.14859V21.3886C0.280273 22.9586 1.30027 23.9786 2.87027 23.9786H21.0803C22.6503 23.9786 23.6603 22.9586 23.6603 21.3886V3.14859C23.6603 1.57859 22.6503 0.558594 21.0803 0.558594ZM10.3903 22.4886H5.14027V22.1086C5.14027 20.1186 5.14027 18.1186 5.13027 16.1286C5.13027 15.4686 5.35027 14.8986 5.80027 14.4386C6.48027 13.7286 6.82027 12.8686 6.82027 11.8586V8.81859H8.71027V11.8786C8.71027 12.8686 9.05027 13.7286 9.72027 14.4286C10.1703 14.8986 10.3903 15.4486 10.3903 16.1186V22.4886ZM6.83027 7.28859V5.43859H8.69027V7.28859H6.83027ZM18.7103 22.3686V22.4186L15.3603 22.3686H15.3103V19.2886L17.0903 19.8686C17.5803 20.0286 18.0703 20.1886 18.5403 20.3686C18.6403 20.3986 18.7503 20.5286 18.7503 20.6186C18.7603 21.0486 18.7603 21.4886 18.7603 21.9286L18.7103 22.3686ZM18.7903 18.8186L18.6603 18.7786C18.1203 18.5986 17.5903 18.4186 17.0703 18.2486L16.2903 17.9786C16.2103 17.9586 16.1403 17.9286 16.0603 17.9086C15.8603 17.8486 15.6603 17.7786 15.4603 17.6986C15.3603 17.6586 15.2503 17.5186 15.2503 17.3986C15.2403 16.8286 15.2403 16.2586 15.2403 15.6686V15.5686H18.7903V18.8186ZM22.1803 21.3686C22.1803 22.1386 21.8303 22.4886 21.0503 22.4886H20.2903V14.9486C20.2903 14.3286 20.0103 14.0586 19.3903 14.0586H18.6103V13.5786C18.6103 12.5086 18.2303 12.3686 17.8603 12.3686C17.4803 12.3786 17.1303 12.5286 17.1303 13.5886V14.0586H14.6203C14.0303 14.0586 13.7603 14.3386 13.7603 14.9386V22.4786H11.8703V22.0786C11.8703 20.1086 11.8703 18.1286 11.8803 16.1486C11.8803 15.0586 11.5303 14.1686 10.8203 13.4286C10.4003 12.9986 10.1903 12.4686 10.1903 11.8286V4.84859C10.1903 4.20859 9.92027 3.92859 9.28027 3.92859H6.18027C5.63027 3.92859 5.34027 4.21859 5.34027 4.77859V7.10859C5.34027 8.65859 5.33027 10.2186 5.34027 11.7686C5.34027 12.4486 5.12027 13.0186 4.65027 13.4986C3.99027 14.1886 3.65027 15.0386 3.65027 16.0086V22.4886H3.23027C3.12027 22.4986 3.03027 22.4986 2.93027 22.4986C2.83027 22.4986 2.73027 22.4986 2.62027 22.4886C2.17027 22.4586 1.80027 22.0786 1.77027 21.6186V3.17859C1.77027 2.38859 2.11027 2.04859 2.91027 2.04859C5.93027 2.04859 8.95027 2.03859 11.9703 2.03859C14.9903 2.03859 18.0203 2.04859 21.0403 2.04859C21.8303 2.04859 22.1803 2.39859 22.1803 3.17859V21.3686Z" fill="#018058"/>
</g>
<defs>
<clipPath id="clip0_1650_12348">
<rect width="24" height="24" fill="white" transform="translate(0 0.268555)"/>
</clipPath>
</defs>
</svg>
