<svg width="24" height="25" viewBox="0 0 24 25" fill="none" xmlns="http://www.w3.org/2000/svg">
<g clip-path="url(#clip0_1651_12614)">
<path d="M22.0198 11.8584H11.0898C10.8698 11.8584 10.7198 11.8084 10.5598 11.6484C8.5798 9.64844 6.5798 7.65844 4.5898 5.66844L4.4098 5.48844C4.1598 5.27844 3.8298 5.24844 3.5598 5.39844C3.2798 5.54844 3.1098 5.84844 3.1898 6.15844C3.2298 6.34844 3.3498 6.53844 3.4898 6.66844C5.1298 8.32844 6.7798 9.96844 8.4298 11.6184C8.4898 11.6884 8.5498 11.7484 8.6498 11.8584H2.1798C1.5698 11.8584 1.2998 12.1284 1.2998 12.7384C1.2998 13.9584 1.2998 15.1784 1.2998 16.3884C1.2998 17.0784 1.5498 17.3384 2.2398 17.3384H13.9098C14.0798 17.3384 14.1998 17.3884 14.3198 17.5084C16.4198 19.6184 18.5298 21.7284 20.6398 23.8284C20.8098 23.9884 21.0098 24.1184 21.1998 24.2684H21.5698C21.7898 24.1484 22.0098 24.0284 22.0898 23.7684C22.1998 23.4184 22.0798 23.1484 21.8298 22.9084C20.0398 21.1184 18.2598 19.3284 16.4698 17.5484C16.4198 17.4884 16.3598 17.4284 16.2798 17.3384H21.9298C22.4198 17.3384 22.7498 17.0684 22.7498 16.6084C22.7598 15.2684 22.7598 13.9284 22.7498 12.5884C22.7498 12.1584 22.4498 11.8784 22.0198 11.8584ZM2.8098 15.8384V13.3484H3.0598C5.3598 13.3484 7.6498 13.3584 9.9398 13.3484C10.0998 13.3484 10.2098 13.3984 10.3198 13.5084C11.0798 14.2784 11.8398 15.0384 12.6398 15.8384H2.8098ZM15.7298 15.8384C15.4198 15.8384 15.1298 15.8484 14.8298 15.8384C14.7898 15.8384 14.7298 15.8084 14.6998 15.7684C13.9098 14.9884 13.1198 14.1984 12.2898 13.3684H15.7298V15.8384ZM21.2398 15.8384H17.2598V13.3684H21.2398V15.8384Z" fill="#018058"/>
<path d="M21.7697 6.02858C21.2197 7.37858 21.0497 8.78858 21.1897 10.2386C21.2397 10.7486 20.9597 11.1186 20.5097 11.1586C20.0797 11.1986 19.7397 10.8786 19.6997 10.3886C19.6697 10.0386 19.6497 9.68858 19.6297 9.33858C19.6397 7.91858 19.9397 6.55858 20.4497 5.23858C20.9897 3.85858 20.7597 2.62858 19.6297 1.60858C19.3297 1.32858 19.3097 0.878578 19.5697 0.568578C19.8397 0.268578 20.2897 0.208578 20.5997 0.478578C21.7597 1.45858 22.2797 2.71858 22.2097 4.21858C22.1797 4.84858 21.9997 5.44858 21.7697 6.02858Z" fill="#018058"/>
<path d="M18.9703 9.2685C18.9103 9.7185 18.7903 10.1685 18.6703 10.6085C18.5603 10.9985 18.2103 11.2085 17.8503 11.1485C17.4603 11.0785 17.2103 10.7985 17.2103 10.3485C17.2803 10.0885 17.3703 9.7785 17.4303 9.4585C17.6103 8.4685 17.6803 7.4885 17.2303 6.5485C17.0703 6.1985 16.8403 5.8785 16.6603 5.5285C16.0603 4.3585 15.9403 3.1285 16.2803 1.8585C16.4003 1.4185 16.7803 1.1685 17.1803 1.2685C17.6103 1.3685 17.8503 1.7585 17.7303 2.2185C17.4303 3.3285 17.6203 4.3485 18.2503 5.2985C19.0603 6.5185 19.1803 7.8685 18.9703 9.2685Z" fill="#018058"/>
</g>
<defs>
<clipPath id="clip0_1651_12614">
<rect width="24" height="24" fill="white" transform="translate(0 0.268555)"/>
</clipPath>
</defs>
</svg>
