<svg width="24" height="25" viewBox="0 0 24 25" fill="none" xmlns="http://www.w3.org/2000/svg">
<g clip-path="url(#clip0_1650_12422)">
<path d="M7.92 3.81872C6.12 2.92872 4.26 2.90872 2.4 3.59872C1.32 3.99872 0.52 4.69872 0.16 5.82872C0.09 6.03872 0.05 6.24872 0 6.45872V19.5787C0 19.5787 0.03 19.6387 0.03 19.6687C0.33 20.8187 1.08 21.4087 2.28 21.4087H7.57C8.96 21.4087 9.84 20.5287 9.84 19.1387V6.95872C9.84 5.51872 9.2 4.44872 7.92 3.81872ZM1.42 7.34872H2.08C2.51 7.33872 2.82 7.03872 2.81 6.62872C2.8 6.23872 2.5 5.94872 2.08 5.93872H1.63C1.85 5.52872 2.15 5.27872 2.52 5.08872C3.41 4.61872 4.38 4.48872 5.37 4.55872C5.96 4.59872 6.53 4.71872 7.07 4.95872C7.54 5.16872 7.94 5.44872 8.22 5.93872H7.8C7.35 5.94872 7.03 6.23872 7.03 6.64872C7.03 7.05872 7.35 7.33872 7.81 7.34872H8.43V9.42872C6.09 8.51872 3.76 8.50872 1.42 9.42872V7.34872ZM1.59 10.9987C2.25 10.5487 2.99 10.3387 3.78 10.2387C4.94 10.0887 6.09 10.1187 7.2 10.4987C7.58 10.6187 7.92 10.8387 8.27 11.0187C8.4 11.0787 8.44 11.1887 8.44 11.3387C8.43 11.9787 8.44 12.6187 8.44 13.2587V15.0187C8.43 16.2787 7.52 17.1887 6.26 17.1887H3.59C2.33 17.1887 1.41 16.2787 1.41 15.0187C1.41 13.7987 1.41 12.5687 1.41 11.3387C1.41 11.1787 1.48 11.0887 1.6 10.9987H1.59ZM8.43 19.3287C8.42 19.7287 8.11 19.9987 7.68 19.9987C6.21 20.0087 4.73 19.9987 3.26 19.9987C2.89 19.9987 2.53 20.0087 2.16 19.9987C1.7 19.9987 1.41 19.7087 1.41 19.2587C1.41 18.8187 1.41 18.3887 1.41 17.9187C1.48 17.9587 1.53 17.9787 1.58 18.0087C2.17 18.3987 2.81 18.5887 3.52 18.5987H6.33C7.03 18.5987 7.68 18.3987 8.27 18.0087C8.31 17.9787 8.36 17.9587 8.44 17.9087C8.44 18.4087 8.45 18.8687 8.43 19.3287Z" fill="#018058"/>
<path d="M23.9998 0.78832V1.15832C23.8098 1.56832 23.4898 1.67832 23.0598 1.67832C20.3698 1.67832 17.6898 1.67832 14.9998 1.67832C14.8798 1.67832 14.7498 1.67832 14.6398 1.63832C14.3598 1.54832 14.1998 1.33832 14.1598 1.05832C14.1298 0.76832 14.2498 0.53832 14.4998 0.37832C14.5498 0.34832 14.6098 0.30832 14.6698 0.27832H23.4798C23.7198 0.38832 23.8898 0.55832 23.9998 0.79832V0.78832Z" fill="#018058"/>
<path d="M24.0005 23.3787V23.7487C23.8905 23.9887 23.7205 24.1587 23.4805 24.2687H14.6705C14.6705 24.2687 14.5705 24.2087 14.5205 24.1787C14.2505 24.0187 14.1005 23.7087 14.1705 23.4187C14.2405 23.1087 14.5005 22.8887 14.8205 22.8687C14.8905 22.8687 14.9705 22.8687 15.0505 22.8687C17.7205 22.8687 20.3905 22.8687 23.0605 22.8687C23.4905 22.8687 23.8105 22.9787 24.0005 23.3887V23.3787Z" fill="#018058"/>
<path d="M9.83 1.11855C9.75 1.42855 9.5 1.64855 9.18 1.66855C9.11 1.66855 9.03 1.66855 8.95 1.66855C6.28 1.66855 3.61 1.66855 0.94 1.66855C0.51 1.67855 0.19 1.54855 0 1.14855V0.778555C0.11 0.548555 0.28 0.378555 0.52 0.268555H9.33C9.33 0.268555 9.43 0.328555 9.48 0.358555C9.75 0.518555 9.9 0.828555 9.83 1.11855Z" fill="#018058"/>
<path d="M9.84 23.4884C9.87 23.7784 9.75 24.0084 9.5 24.1684C9.45 24.1984 9.39 24.2384 9.33 24.2684H0.52C0.28 24.1584 0.11 23.9884 0 23.7484V23.3784C0.19 22.9684 0.51 22.8584 0.94 22.8584C3.63 22.8584 6.31 22.8584 9 22.8584C9.12 22.8584 9.25 22.8584 9.36 22.8984C9.64 22.9884 9.8 23.1984 9.84 23.4784V23.4884Z" fill="#018058"/>
<path d="M12.6998 2.37855C12.6998 2.81855 12.3998 3.12855 11.9998 3.12855C11.5998 3.12855 11.2998 2.81855 11.2998 2.37855C11.2898 1.98855 11.3198 1.59855 11.2898 1.20855C11.2598 0.778555 11.4098 0.458555 11.8098 0.268555H12.1898C12.5898 0.458555 12.7398 0.778555 12.7098 1.20855C12.6798 1.59855 12.7098 1.98855 12.6998 2.37855Z" fill="#018058"/>
<path d="M12.7098 23.3287C12.7398 23.7587 12.5898 24.0787 12.1898 24.2687H11.8098C11.4098 24.0787 11.2598 23.7587 11.2898 23.3287C11.3198 22.9387 11.2898 22.5487 11.2998 22.1587C11.2998 21.7187 11.5998 21.4087 11.9998 21.4087C12.3998 21.4087 12.6998 21.7187 12.6998 22.1587C12.7098 22.5487 12.6798 22.9387 12.7098 23.3287Z" fill="#018058"/>
<path d="M22.5296 9.86863C22.3496 8.39863 21.1796 7.34863 19.6996 7.34863H16.3396C15.7796 7.34863 15.5196 7.61863 15.5196 8.17863V16.3586C15.5196 16.4186 15.4996 16.4786 15.5196 16.5186C15.5896 16.6886 15.6496 16.8786 15.7696 17.0086C15.9696 17.2186 16.2396 17.2486 16.4996 17.1286C16.7796 16.9986 16.9196 16.7586 16.9196 16.4486V12.9686H17.1996C18.0296 12.9686 18.8596 12.9786 19.6796 12.9686C19.9096 12.9686 20.1396 12.9486 20.3596 12.8986C21.7596 12.5586 22.6996 11.2386 22.5296 9.86863ZM19.6496 11.5686H17.0296C17.0296 11.5686 16.9796 11.5586 16.9296 11.5586V8.76863C16.9996 8.75863 17.0696 8.75863 17.1296 8.74863H19.6596C20.5096 8.75863 21.1396 9.35863 21.1396 10.1486C21.1396 10.9386 20.5096 11.5586 19.6496 11.5686Z" fill="#018058"/>
<path d="M12.7005 5.21833C12.7105 5.45833 12.7005 5.70833 12.7005 5.94833C12.7005 6.18833 12.7105 6.41833 12.7005 6.64833C12.6905 7.04833 12.3805 7.34833 12.0005 7.34833C11.6205 7.34833 11.3105 7.04833 11.3005 6.64833C11.2905 6.16833 11.2905 5.69833 11.3005 5.21833C11.3105 4.83833 11.6205 4.53833 11.9905 4.53833C12.3705 4.52833 12.6905 4.82833 12.7005 5.21833Z" fill="#018058"/>
<path d="M12.7003 9.44854C12.7103 9.92854 12.7103 10.3985 12.7003 10.8785C12.6903 11.2685 12.3703 11.5685 11.9903 11.5685C11.6203 11.5585 11.3103 11.2585 11.3003 10.8785C11.2903 10.6385 11.3003 10.3985 11.3003 10.1585C11.3003 9.91854 11.2903 9.68854 11.3003 9.45854C11.3103 9.05854 11.6203 8.75854 12.0003 8.75854C12.3803 8.74854 12.6903 9.05854 12.7003 9.44854Z" fill="#018058"/>
<path d="M12.7005 13.6588C12.7105 13.8988 12.7005 14.1387 12.7005 14.3787C12.7005 14.6187 12.7105 14.8488 12.7005 15.0788C12.6905 15.4788 12.3905 15.7788 12.0005 15.7788C11.6205 15.7888 11.3105 15.4887 11.3005 15.0887C11.2905 14.6187 11.2905 14.1388 11.3005 13.6588C11.3105 13.2688 11.6305 12.9688 12.0105 12.9688C12.3805 12.9787 12.6905 13.2688 12.7005 13.6588Z" fill="#018058"/>
<path d="M12.7003 17.8885C12.7103 18.3585 12.7103 18.8385 12.7003 19.3085C12.6903 19.7085 12.3803 20.0085 11.9903 19.9985C11.6103 19.9985 11.3103 19.6985 11.3003 19.2985C11.2903 19.0685 11.3003 18.8285 11.3003 18.5985C11.3003 18.3685 11.2903 18.1285 11.3003 17.8985C11.3103 17.4985 11.6103 17.1985 11.9903 17.1885C12.3803 17.1885 12.6903 17.4885 12.7003 17.8885Z" fill="#018058"/>
</g>
<defs>
<clipPath id="clip0_1650_12422">
<rect width="24" height="24" fill="white" transform="translate(0 0.268555)"/>
</clipPath>
</defs>
</svg>
