<svg width="24" height="25" viewBox="0 0 24 25" fill="none" xmlns="http://www.w3.org/2000/svg">
<path d="M20.6196 4.80844C20.0896 4.73844 19.5396 4.77844 19.0096 4.75844H18.7496V2.56844C18.7496 2.07844 18.4396 1.76844 17.9496 1.75844H13.5396C13.0596 1.76844 12.7496 2.07844 12.7496 2.55844V4.74844H10.4896C10.4896 4.44844 10.4996 4.17844 10.4896 3.90844C10.4496 2.86844 9.66956 1.95844 8.64956 1.80844C8.17956 1.74844 7.69956 1.80844 7.21956 1.75844C5.47956 1.60844 4.33956 2.78844 4.49956 4.47844V4.76844C4.21956 4.76844 3.96956 4.75844 3.71956 4.76844C2.49956 4.78844 1.49956 5.75844 1.49956 6.97844C1.48956 10.7584 1.49956 14.5384 1.49956 18.3184C1.49956 18.8784 1.70956 19.3684 2.08956 19.7884C2.52956 20.2584 3.08956 20.4884 3.71956 20.5284C3.96956 21.9384 4.74956 22.7384 5.91956 22.7684C6.45956 22.7784 6.94956 22.6284 7.37956 22.2884C7.94956 21.8484 8.21956 21.2384 8.25956 20.5184H20.1096C20.3496 20.5184 20.5896 20.4984 20.8196 20.4384C21.8396 20.1684 22.4996 19.2884 22.4996 18.1984V6.94844C22.4596 5.87844 21.6796 4.94844 20.6196 4.80844ZM14.2696 3.27844H17.2396V7.74844H14.2696V3.27844ZM6.03956 21.2684C5.62956 21.2984 5.22956 20.9284 5.25956 20.5284H6.72956C6.73956 20.9184 6.42956 21.2384 6.03956 21.2684ZM6.73956 19.0084C6.67956 19.0084 6.63956 19.0184 6.58956 19.0184H3.79956C3.30956 19.0184 2.99956 18.7084 2.99956 18.2084V7.05844C2.99956 6.57844 3.30956 6.26844 3.78956 6.26844C4.00956 6.25844 4.23956 6.26844 4.49956 6.26844V6.54844C4.49956 9.35844 4.52956 12.1684 4.47956 14.9884C4.45956 16.3084 5.26956 17.4284 6.73956 17.5284V19.0084ZM8.18956 16.0184H6.80956C6.29956 16.0084 5.99956 15.7084 5.99956 15.1984V4.15844C5.99956 3.54844 6.27956 3.25844 6.87956 3.25844H8.18956C8.68956 3.26844 8.99956 3.57844 8.99956 4.06844V15.2084C8.99956 15.7084 8.68956 16.0084 8.18956 16.0184ZM20.9996 18.0984C20.9996 18.7484 20.7296 19.0184 20.0896 19.0184H8.25956V17.5484C8.48956 17.4984 8.71956 17.4684 8.93956 17.3984C9.88956 17.0984 10.4996 16.2384 10.4996 15.2084V6.27844H12.7296V7.75844H12.0096V9.24844H19.4796V7.76844H18.7696V6.26844C19.2996 6.26844 19.8396 6.24844 20.3696 6.27844C20.7096 6.29844 20.9696 6.61844 20.9996 6.96844V18.0984Z" fill="#018058"/>
<path d="M14.2398 10.7783H12.7598V12.2483H14.2398V10.7783Z" fill="#018058"/>
<path d="M16.4895 10.7783H15.0195V12.2483H16.4895V10.7783Z" fill="#018058"/>
<path d="M18.7398 10.7783H17.2598V12.2483H18.7398V10.7783Z" fill="#018058"/>
<path d="M14.2295 13.0283H12.7695V14.5083H14.2295V13.0283Z" fill="#018058"/>
<path d="M16.4798 13.0186H15.0098V14.4986H16.4798V13.0186Z" fill="#018058"/>
<path d="M18.7295 13.0283H17.2695V14.5083H18.7295V13.0283Z" fill="#018058"/>
<path d="M14.2298 15.2783H12.7598V16.7583H14.2298V15.2783Z" fill="#018058"/>
<path d="M16.4798 15.2886H15.0098V16.7586H16.4798V15.2886Z" fill="#018058"/>
<path d="M18.7395 15.2783H17.2695V16.7483H18.7395V15.2783Z" fill="#018058"/>
</svg>
