<svg width="24" height="25" viewBox="0 0 24 25" fill="none" xmlns="http://www.w3.org/2000/svg">
<g clip-path="url(#clip0_1650_12304)">
<path d="M19.19 2.06877C19.11 1.29877 18.53 0.73877 17.75 0.73877H6.24004C5.74004 0.73877 5.34004 0.95877 5.05004 1.36877C4.84004 1.66877 4.79004 1.99877 4.79004 2.34877V20.7288C4.79004 20.8588 4.80004 20.9988 4.82004 21.1288C4.90004 21.6888 5.32004 22.1688 5.88004 22.2988C5.99004 22.3288 6.11004 22.3488 6.23004 22.3688V23.0288C6.24004 23.4688 6.56004 23.7988 6.96004 23.7888C7.37004 23.7888 7.67004 23.4688 7.68004 23.0288V22.3588H16.32C16.32 22.5888 16.31 22.8088 16.32 23.0188C16.32 23.4688 16.63 23.7888 17.03 23.7888C17.44 23.7988 17.75 23.4688 17.76 23.0288V22.3588C18.22 22.3288 18.59 22.1588 18.87 21.8288C19.13 21.5088 19.2 21.1488 19.2 20.7488V2.34877C19.2 2.25877 19.2 2.15877 19.19 2.06877ZM17.74 20.8988H6.25004V10.1188H17.74V20.8988ZM17.74 8.64877H6.25004V2.19877H17.74V8.64877Z" fill="#018058"/>
<path d="M8.39008 12.2686C8.40008 12.5186 8.39008 12.7686 8.39008 13.0186C8.39008 13.2486 8.40008 13.4786 8.39008 13.7186C8.38008 14.1086 8.08008 14.4186 7.70008 14.4286C7.31008 14.4286 6.98008 14.1486 6.97008 13.7586C6.95008 13.2386 6.95008 12.7286 6.97008 12.2086C6.98008 11.8086 7.31008 11.5386 7.70008 11.5486C8.09008 11.5686 8.38008 11.8586 8.39008 12.2686Z" fill="#018058"/>
<path d="M8.39008 5.03865C8.40008 5.28865 8.39008 5.53865 8.39008 5.78865C8.39008 6.03865 8.40008 6.27865 8.39008 6.51865C8.38008 6.90865 8.09008 7.19865 7.72008 7.21865C7.33008 7.23865 6.99008 6.95865 6.97008 6.56865C6.95008 6.03865 6.95008 5.50865 6.97008 4.97865C6.99008 4.59865 7.34008 4.32865 7.71008 4.33865C8.08008 4.35865 8.38008 4.65865 8.39008 5.03865Z" fill="#018058"/>
</g>
<defs>
<clipPath id="clip0_1650_12304">
<rect width="24" height="24" fill="white" transform="translate(0 0.268555)"/>
</clipPath>
</defs>
</svg>
