<svg width="24" height="25" viewBox="0 0 24 25" fill="none" xmlns="http://www.w3.org/2000/svg">
<g clip-path="url(#clip0_1650_12463)">
<path d="M23.05 13.0686C22.87 13.0786 22.68 13.0686 22.47 13.0686C22.28 10.6886 21.43 8.60855 19.85 6.82855C18.29 5.05855 16.33 3.94855 14 3.46855C14.02 3.40855 14.03 3.35855 14.05 3.30855C14.56 2.01855 13.8 0.608555 12.44 0.308555C12.4 0.308555 12.36 0.278555 12.33 0.268555H11.67C11.14 0.398555 10.66 0.628555 10.31 1.06855C9.77 1.75855 9.64 2.50855 9.96 3.32855C9.96 3.35855 9.98 3.38855 9.99 3.41855C5.01 4.73855 2.18 7.93855 1.48 13.0686C1.3 13.0686 1.09 13.0786 0.89 13.0686C0.45 13.0386 0.15 13.2086 0 13.6286V13.9586C0.18 14.3786 0.5 14.4886 0.94 14.4786C2.01 14.4586 3.09 14.4786 4.19 14.4786C4.15 14.5386 4.13 14.5786 4.1 14.6186C3.49 15.3386 3.13 16.1586 3.03 17.0886C3.02 17.1986 2.95 17.3086 2.87 17.3786C2.06 18.2086 1.23 19.0286 0.41 19.8586C0.26 20.0086 0.14 20.1986 0 20.3786V20.7086C0.12 20.8786 0.23 21.0586 0.37 21.2086C1.26 22.1086 2.16 23.0086 3.06 23.8986C3.21 24.0486 3.39 24.1486 3.56 24.2686H3.89C4.07 24.1286 4.26 24.0086 4.42 23.8586C5.25 23.0286 6.07 22.1986 6.91 21.3786C6.99 21.2986 7.12 21.2286 7.24 21.2086C9.03 21.0086 10.82 20.8086 12.61 20.6086C12.92 20.5786 13.22 20.5586 13.52 20.4986C13.69 20.4686 13.87 20.3986 14 20.2986C15.71 18.9386 17.41 17.5786 19.11 16.2186C19.65 15.7786 19.85 15.1986 19.76 14.4786H20.02C21.04 14.4786 22.06 14.4586 23.08 14.4786C23.52 14.4786 23.82 14.3486 24 13.9586V13.5786C23.81 13.1786 23.49 13.0286 23.05 13.0686ZM11.98 1.67855C12.42 1.67855 12.79 2.01855 12.8 2.45855C12.8 2.91855 12.47 3.26855 12.02 3.26855C11.55 3.27855 11.2 2.93855 11.2 2.46855C11.2 2.03855 11.55 1.68855 11.98 1.67855ZM18.18 15.1586C16.57 16.4486 14.96 17.7386 13.34 19.0186C13.24 19.1086 13.08 19.1386 12.94 19.1586C10.87 19.3886 8.79 19.6086 6.72 19.8586C6.53 19.8786 6.31 19.9986 6.16 20.1386C5.4 20.8686 4.66 21.6286 3.92 22.3686C3.86 22.4286 3.81 22.5086 3.78 22.5586C3.08 21.8586 2.41 21.1986 1.73 20.5086C2.19 20.0586 2.66 19.5886 3.14 19.1086C3.48 18.7786 3.81 18.4386 4.15 18.0986C4.32 17.9386 4.41 17.7486 4.42 17.4986C4.5 15.7086 5.8 14.4786 7.6 14.4786C8.3 14.4786 9.01 14.4686 9.71 14.4786C10.3 14.4786 10.67 14.9786 10.5 15.5286C10.39 15.8786 10.11 16.0786 9.69 16.0786C9.01 16.0886 8.33 16.0786 7.65 16.0786C7.55 16.0786 7.45 16.0886 7.35 16.1086C6.99 16.1686 6.77 16.4486 6.79 16.8286C6.81 17.1786 7.05 17.4386 7.41 17.4786C7.48 17.4786 7.56 17.4786 7.64 17.4786C9.29 17.4786 10.94 17.4786 12.59 17.4786C12.88 17.4786 13.11 17.3986 13.34 17.2186C14.13 16.5686 14.93 15.9386 15.73 15.2986C16.37 14.7786 17.1 14.5086 17.92 14.4686C18.12 14.4586 18.28 14.5086 18.35 14.7086C18.42 14.9086 18.32 15.0386 18.18 15.1486V15.1586ZM11.81 14.4886H14.5C13.82 15.0286 13.21 15.5586 12.55 16.0286C12.38 16.1486 12.08 16.0786 11.8 16.0986C11.99 15.5386 12 15.0186 11.81 14.4886ZM2.97 13.0586C3.3 8.51855 6.81 4.80855 11.91 4.75855C16.83 4.70855 20.63 8.15855 21.04 13.0586H2.97Z" fill="#018058"/>
</g>
<defs>
<clipPath id="clip0_1650_12463">
<rect width="24" height="24" fill="white" transform="translate(0 0.268555)"/>
</clipPath>
</defs>
</svg>
