<svg width="24" height="25" viewBox="0 0 24 25" fill="none" xmlns="http://www.w3.org/2000/svg">
<path d="M23.8 2.71859C23.37 1.80859 22.63 1.33859 21.63 1.30859C21.14 1.30859 20.66 1.30859 20.18 1.30859H2.49C1.35 1.30859 0.47 1.90859 0.13 2.91859C0.08 3.05859 0.04 3.20859 0 3.35859V21.1786C0.07 21.3886 0.11 21.6186 0.2 21.8186C0.62 22.6986 1.33 23.1686 2.3 23.2286H21.51C22.66 23.2286 23.55 22.6086 23.88 21.5986C23.93 21.4586 23.96 21.3186 24 21.1786V3.35859C23.93 3.14859 23.89 2.91859 23.8 2.71859ZM22.44 20.7186C22.44 21.3686 22.15 21.6586 21.49 21.6586H2.51C1.85 21.6586 1.56 21.3686 1.56 20.7186V3.81859C1.56 3.15859 1.85 2.87859 2.51 2.87859H21.49C22.15 2.87859 22.44 3.15859 22.44 3.81859V20.7186Z" fill="#018058"/>
<path d="M19.9299 4.43848H4.05988C3.41988 4.43848 3.12988 4.72848 3.12988 5.36848V19.1685C3.12988 19.8085 3.41988 20.0985 4.06988 20.0985H19.9399C20.5799 20.0985 20.8699 19.8085 20.8699 19.1685V5.35848C20.8699 4.72848 20.5799 4.43848 19.9299 4.43848ZM19.2999 18.5085H4.70988V16.1985C4.78988 16.1885 4.86988 16.1785 4.94988 16.1785C5.36988 16.1785 5.78988 16.1885 6.20988 16.1785C6.70988 16.1785 7.04988 15.8385 7.03988 15.3785C7.03988 14.9385 6.68988 14.6185 6.20988 14.6185C5.70988 14.6185 5.20988 14.6185 4.69988 14.6185V9.91848H5.27988C5.61988 9.91848 5.95988 9.91848 6.28988 9.91848C6.71988 9.89848 7.03988 9.55848 7.03988 9.13848C7.03988 8.71848 6.72988 8.37848 6.28988 8.35848C5.85988 8.34848 5.41988 8.35848 4.97988 8.35848H4.70988V6.02848H19.2999V18.5085Z" fill="#018058"/>
<path d="M16.1299 13.9984C16.0299 13.8984 16.0099 13.8284 16.0799 13.6984C16.3099 13.2884 16.4099 12.8384 16.4299 12.4684C16.4599 11.8984 16.3499 11.3384 16.0999 10.8784C16.0099 10.7184 16.0399 10.6284 16.1699 10.5084C16.4299 10.2684 16.6699 10.0084 16.9199 9.75842C17.2899 9.38842 17.3099 8.90842 16.9799 8.57842C16.6499 8.24842 16.1799 8.28842 15.8199 8.64842C15.5499 8.91842 15.2799 9.17842 15.0199 9.44842C14.9299 9.53842 14.8699 9.55842 14.7399 9.49842C13.7899 9.00842 12.8199 9.00842 11.8699 9.49842C11.7499 9.55842 11.6799 9.53842 11.5899 9.44842C11.3199 9.16842 11.0399 8.88842 10.7599 8.61842C10.4199 8.28842 9.93987 8.26842 9.62987 8.57842C9.29987 8.89842 9.30987 9.36842 9.65987 9.72842C9.93987 10.0084 10.2299 10.2884 10.4999 10.5784C10.5399 10.6184 10.5599 10.7484 10.5299 10.8084C10.0499 11.7784 10.0499 12.7584 10.5299 13.7284C10.5599 13.7884 10.5299 13.9184 10.4999 13.9584C10.2299 14.2484 9.94987 14.5184 9.66987 14.7984C9.31987 15.1584 9.29987 15.6184 9.60987 15.9384C9.92987 16.2684 10.4199 16.2584 10.7799 15.8984C11.0599 15.6284 11.3299 15.3384 11.6099 15.0784C11.6599 15.0284 11.7799 15.0084 11.8399 15.0384C12.8099 15.5184 13.7799 15.5284 14.7499 15.0384C14.8699 14.9784 14.9399 14.9984 15.0299 15.0884C15.2899 15.3684 15.5599 15.6384 15.8399 15.9084C16.1899 16.2484 16.6599 16.2684 16.9799 15.9484C17.2999 15.6384 17.2899 15.1484 16.9499 14.8084C16.6799 14.5284 16.4099 14.2584 16.1299 13.9984ZM13.3099 13.8284C12.4399 13.8284 11.7399 13.1384 11.7399 12.2684C11.7399 11.3984 12.4399 10.7084 13.2999 10.7084C14.1599 10.7084 14.8599 11.3984 14.8599 12.2684C14.8699 13.1384 14.1699 13.8284 13.3099 13.8284Z" fill="#018058"/>
</svg>
