<svg width="24" height="25" viewBox="0 0 24 25" fill="none" xmlns="http://www.w3.org/2000/svg">
<g clip-path="url(#clip0_1650_12454)">
<path d="M23.97 14.1986C23.62 12.6986 22.71 11.9886 21.17 11.9886H20.25V11.3986C20.25 10.8486 19.98 10.5786 19.43 10.5786H10.2C9.65 10.5786 9.38 10.8486 9.38 11.3986C9.37 12.9186 9.38 14.4286 9.38 15.9486C9.37 16.0286 9.38 16.1086 9.38 16.2086H9.09C7.54 16.2086 6 16.1986 4.45 16.2086C2.44 16.2186 0.71 17.5386 0.16 19.4686C0.1 19.7086 0.05 19.9486 0 20.1886V22.4386C0.04 22.5686 0.06 22.6986 0.11 22.8186C0.37 23.5586 0.89 24.0186 1.65 24.2186C1.71 24.2286 1.77 24.2486 1.83 24.2686H18.42C18.56 24.2286 18.71 24.1986 18.85 24.1486C19.67 23.8486 20.23 23.0786 20.25 22.1986C20.26 21.3886 20.25 20.5786 20.25 19.7686V19.4886H21.27C22.7 19.4886 23.67 18.6986 23.97 17.2986C23.97 17.2786 23.99 17.2586 24 17.2386V14.2386C24 14.2386 23.98 14.2186 23.97 14.1986ZM10.8 11.9986H18.83V13.3786H10.8V11.9986ZM13.12 22.0886C13.12 22.5786 12.84 22.8586 12.35 22.8586H2.18C1.7 22.8586 1.4 22.5786 1.41 22.0986C1.41 21.4586 1.38 20.8086 1.46 20.1786C1.65 18.6586 3.1 17.5086 4.62 17.6186C4.64 17.6186 4.65 17.6286 4.69 17.6486V18.7086C4.69 19.1686 4.97 19.4786 5.38 19.4886C5.8 19.4886 6.09 19.1686 6.09 18.6986C6.09 18.3486 6.09 17.9986 6.09 17.6186H8.44C8.44 18.0186 8.43 18.3986 8.44 18.7886C8.46 19.3286 8.99 19.6486 9.46 19.4086C9.72 19.2686 9.84 19.0486 9.84 18.7586C9.84 18.3886 9.84 18.0086 9.84 17.6186C10.8 17.5786 11.61 17.8686 12.27 18.5486C12.84 19.1286 13.12 19.8486 13.12 20.6586C13.13 21.1386 13.13 21.6186 13.12 22.0886ZM18.84 22.0186C18.84 22.5986 18.58 22.8586 18 22.8586H14.45C14.58 21.9286 14.58 21.0086 14.48 20.0886C14.29 18.2386 12.83 16.6786 10.99 16.2986C10.93 16.2886 10.86 16.2686 10.79 16.2486V14.8186H18.84V22.0186ZM22.59 16.9586C22.58 17.5586 22.08 18.0586 21.48 18.0786C21.08 18.0886 20.68 18.0786 20.26 18.0786V13.3686C20.76 13.3986 21.27 13.3786 21.76 13.4586C22.24 13.5386 22.58 14.0186 22.59 14.5286C22.59 15.3386 22.59 16.1486 22.59 16.9586Z" fill="#018058"/>
<path d="M15.0902 4.75855C15.0802 5.85855 14.1902 6.76855 13.1002 6.82855C12.5202 6.85855 12.2802 7.10855 12.2802 7.67855C12.2802 7.93855 12.2802 8.18855 12.2802 8.44855C12.2702 8.86856 11.9702 9.17855 11.5802 9.17855C11.1902 9.17855 10.8802 8.86856 10.8802 8.44855C10.8702 8.06855 10.8502 7.67856 10.8902 7.29855C11.0102 6.22855 11.8602 5.46855 12.9502 5.42855C13.4902 5.39855 13.8302 4.92855 13.6302 4.46855C13.5202 4.18855 13.3002 4.03855 13.0002 4.01855C11.6702 3.92855 10.8802 3.07855 10.8802 1.74855C10.8702 1.56855 10.8902 1.38855 10.8702 1.20855C10.8302 0.778555 10.9902 0.458555 11.3902 0.268555H11.7702C12.1702 0.458555 12.3202 0.778555 12.2802 1.20855C12.2702 1.41855 12.2802 1.63855 12.2802 1.84855C12.2802 2.31855 12.5602 2.59855 13.0402 2.60855C14.2102 2.65855 15.1102 3.59855 15.0902 4.75855Z" fill="#018058"/>
<path d="M19.7799 4.75855C19.7599 5.85855 18.8799 6.76855 17.7899 6.82855C17.2099 6.85855 16.9699 7.10855 16.9699 7.67855V8.44855C16.9699 8.86856 16.6599 9.17855 16.2699 9.17855C15.8799 9.17855 15.5699 8.86856 15.5599 8.44855C15.5599 8.06855 15.5399 7.67856 15.5799 7.29855C15.6999 6.22855 16.5499 5.46855 17.6299 5.42855C18.1799 5.39855 18.5099 4.92855 18.3199 4.46855C18.2099 4.18855 17.9899 4.03855 17.6899 4.01855C16.3599 3.92855 15.5599 3.07855 15.5599 1.74855C15.5599 1.56855 15.5799 1.38855 15.5599 1.20855C15.5199 0.778555 15.6699 0.458555 16.0799 0.268555H16.4499C16.8599 0.458555 17.0099 0.778555 16.9699 1.20855C16.9499 1.41855 16.9699 1.63855 16.9699 1.84855C16.9699 2.31855 17.2499 2.59855 17.7199 2.60855C18.8999 2.65855 19.7999 3.59855 19.7799 4.75855Z" fill="#018058"/>
</g>
<defs>
<clipPath id="clip0_1650_12454">
<rect width="24" height="24" fill="white" transform="translate(0 0.268555)"/>
</clipPath>
</defs>
</svg>
