<svg width="24" height="25" viewBox="0 0 24 25" fill="none" xmlns="http://www.w3.org/2000/svg">
<g clip-path="url(#clip0_1650_12291)">
<path d="M16.6298 6.13854C16.4298 6.09854 16.3998 6.00854 16.3998 5.82854V2.54854C16.3998 1.18854 15.5298 0.318542 14.1598 0.318542C12.7198 0.318542 11.2798 0.298542 9.8398 0.328542C9.4998 0.328542 9.1298 0.398542 8.8198 0.538542C7.9998 0.928542 7.6498 1.63854 7.6498 2.52854V5.58854C7.6498 5.74854 7.6798 5.92854 7.6098 6.04854C7.5598 6.13854 7.3598 6.13854 7.2298 6.17854C7.2198 6.17854 7.1998 6.19854 7.1898 6.19854C6.3098 6.52854 5.7998 7.26854 5.7998 8.26854V20.7285C5.7998 20.8085 5.7998 20.8885 5.8098 20.9685C5.8998 22.1885 6.4498 23.1185 7.4898 23.7785C7.9198 24.0485 8.3998 24.1685 8.8898 24.2685H15.1598C15.2698 24.2385 15.3798 24.2185 15.4998 24.1885C17.1398 23.8185 18.2398 22.4585 18.2398 20.7585C18.2498 19.0385 18.2398 17.3285 18.2398 15.6085C18.2398 13.1585 18.2498 10.7085 18.2398 8.26854C18.2398 7.18854 17.6098 6.34854 16.6298 6.13854ZM9.0298 2.50854C9.0298 1.96854 9.2898 1.69854 9.8298 1.69854H14.2198C14.7598 1.69854 15.0198 1.96854 15.0198 2.50854V6.05854H9.0398C9.0398 5.98854 9.0298 5.91854 9.0298 5.85854V2.50854ZM16.8598 14.5785C16.8598 16.6185 16.8598 18.6485 16.8598 20.6885C16.8598 21.5885 16.4898 22.2785 15.6698 22.6685C15.3698 22.8085 15.0098 22.8685 14.6798 22.8785C12.9098 22.8985 11.1398 22.8885 9.3698 22.8785C8.3098 22.8785 7.5298 22.3085 7.2698 21.3385C7.2098 21.1185 7.1898 20.8885 7.1898 20.6685V8.28854C7.1898 7.69854 7.4398 7.45854 8.0298 7.45854H16.0098C16.6198 7.45854 16.8598 7.69854 16.8598 8.30854V14.5785Z" fill="#018058"/>
<path d="M15.0103 11.0087C15.0203 11.6287 15.0203 12.2487 15.0103 12.8787C15.0103 13.1287 14.8803 13.3087 14.6903 13.4687C14.0803 13.9487 13.4903 14.4387 12.8803 14.9187C12.7603 15.0187 12.7103 15.1187 12.7203 15.2687V17.6287C12.7203 17.7887 12.7503 17.8787 12.8903 17.9687C13.5203 18.3587 13.7803 19.1187 13.5503 19.8287C13.3303 20.4887 12.6403 20.9687 11.9703 20.9187C11.2003 20.8687 10.6003 20.3587 10.4403 19.6387C10.3103 18.9987 10.5903 18.3187 11.1603 17.9587C11.3003 17.8787 11.3303 17.7887 11.3303 17.6487C11.3203 16.8887 11.3203 16.1387 11.3303 15.3787C11.3303 15.2187 11.2903 15.1487 11.1403 15.0887C10.6203 14.8987 10.1103 14.6887 9.60027 14.4787C9.16027 14.3087 9.03027 14.1087 9.03027 13.6487V12.4587C9.04027 12.0287 9.32027 11.7287 9.71027 11.7187C10.1103 11.7187 10.3903 11.9987 10.4103 12.4387C10.4103 12.6687 10.4103 12.9087 10.4103 13.1387C10.4103 13.2687 10.4403 13.3387 10.5703 13.3887C10.8103 13.4687 11.0403 13.5687 11.3303 13.6787V10.1787C11.3303 9.76872 11.5503 9.48872 11.9003 9.42872C12.3603 9.34872 12.7103 9.66872 12.7203 10.1787V13.2787C13.0403 13.0187 13.3203 12.7987 13.5903 12.5587C13.6403 12.5187 13.6303 12.4187 13.6303 12.3387C13.6403 11.9087 13.6203 11.4687 13.6403 11.0287C13.6603 10.5287 14.0903 10.2287 14.5403 10.3687C14.8203 10.4587 15.0103 10.6987 15.0103 11.0087Z" fill="#018058"/>
<path d="M11.3296 3.87877C11.3296 4.03877 11.3296 4.20877 11.3196 4.36877C11.3096 4.74877 11.0196 5.02877 10.6496 5.03877C10.2796 5.03877 9.97965 4.75877 9.95965 4.38877C9.94965 4.04877 9.94965 3.71877 9.95965 3.37877C9.97965 2.99877 10.2796 2.73877 10.6596 2.73877C11.0196 2.74877 11.2996 3.01877 11.3196 3.38877C11.3296 3.54877 11.3296 3.71877 11.3296 3.87877Z" fill="#018058"/>
<path d="M14.0904 3.41877C14.1004 3.57877 14.0904 3.72877 14.0904 3.88877C14.0904 4.03877 14.1004 4.19877 14.0904 4.34877C14.0704 4.74877 13.7804 5.03877 13.4104 5.03877C13.0404 5.03877 12.7304 4.74877 12.7204 4.35877C12.7104 4.03877 12.7104 3.72877 12.7204 3.41877C12.7304 3.02877 13.0204 2.73877 13.4004 2.73877C13.7804 2.73877 14.0704 3.01877 14.0904 3.41877Z" fill="#018058"/>
</g>
<defs>
<clipPath id="clip0_1650_12291">
<rect width="24" height="24" fill="white" transform="translate(0 0.268555)"/>
</clipPath>
</defs>
</svg>
